<?xml version="1.0" encoding="UTF-8" standalone="no"?>
<svg
   xmlns:osb="http://www.openswatchbook.org/uri/2009/osb"
   xmlns:dc="http://purl.org/dc/elements/1.1/"
   xmlns:cc="http://creativecommons.org/ns#"
   xmlns:rdf="http://www.w3.org/1999/02/22-rdf-syntax-ns#"
   xmlns:svg="http://www.w3.org/2000/svg"
   xmlns="http://www.w3.org/2000/svg"
   xmlns:xlink="http://www.w3.org/1999/xlink"
   xmlns:sodipodi="http://sodipodi.sourceforge.net/DTD/sodipodi-0.dtd"
   xmlns:inkscape="http://www.inkscape.org/namespaces/inkscape"
   version="1.1"
   width="648"
   height="504"
   id="svg8002"
   viewBox="0 0 648 504"
   sodipodi:docname="GIS LOGO.svg"
   inkscape:export-filename="C:\Users\Esipl\Documents\GLOBE LOGO.png"
   inkscape:export-xdpi="96"
   inkscape:export-ydpi="96"
   inkscape:version="1.0.1 (3bc2e813f5, 2020-09-07)">
  <metadata
     id="metadata8008">
    <rdf:RDF>
      <cc:Work
         rdf:about="">
        <dc:format>image/svg+xml</dc:format>
        <dc:type
           rdf:resource="http://purl.org/dc/dcmitype/StillImage" />
        <dc:title></dc:title>
      </cc:Work>
    </rdf:RDF>
  </metadata>
  <defs
     id="defs8006">
    <linearGradient
       id="linearGradient33685"
       osb:paint="solid">
      <stop
         style="stop-color:#000000;stop-opacity:1;"
         offset="0"
         id="stop33683" />
    </linearGradient>
    <linearGradient
       id="linearGradient33671">
      <stop
         offset="0%"
         stop-color="#1b1918"
         stop-opacity="1.0000"
         id="stop33667"
         style="stop-color:#090c8a;stop-opacity:0.9278847" />
      <stop
         offset="100%"
         stop-color="#ffffff"
         stop-opacity="1.0000"
         id="stop33669" />
    </linearGradient>
    <linearGradient
       id="grad11">
      <stop
         offset="0%"
         stop-color="#1b1918"
         stop-opacity="1.0000"
         id="stop33662" />
      <stop
         offset="100%"
         stop-color="#ffffff"
         stop-opacity="1.0000"
         id="stop33664" />
    </linearGradient>
    <linearGradient
       id="grad8"
       gradientTransform="matrix(1.0000162,0,0,0.99998377,-64.973494,-103.83614)"
       x1="209.8123"
       y1="213.08536"
       x2="302.261"
       y2="213.08536"
       gradientUnits="userSpaceOnUse">
      <stop
         offset="0.0000%"
         stop-color="#ec630b"
         stop-opacity="1.0000"
         id="stop26129" />
      <stop
         offset="12.0000%"
         stop-color="#ffffff"
         stop-opacity="1.0000"
         id="stop26131" />
      <stop
         offset="0.0000%"
         stop-color="#d6d6d6"
         stop-opacity="1.0000"
         id="stop26133" />
      <stop
         offset="512.0000%"
         stop-color="#ffffff"
         stop-opacity="1.0000"
         id="stop26135" />
    </linearGradient>
    <linearGradient
       id="grad9">
      <stop
         offset="0.0000%"
         stop-color="#043168"
         stop-opacity="1.0000"
         id="stop26142" />
      <stop
         offset="12.0000%"
         stop-color="#ffffff"
         stop-opacity="1.0000"
         id="stop26144" />
      <stop
         offset="0.0000%"
         stop-color="#d6d6d6"
         stop-opacity="1.0000"
         id="stop26146" />
    </linearGradient>
    <linearGradient
       xlink:href="#grad9"
       id="grad10"
       x1="161.9431"
       y1="351.91572"
       x2="161.9431"
       y2="413.37263"
       gradientTransform="matrix(1.352969,0,0,0.73911522,-64.973494,-103.83614)"
       gradientUnits="userSpaceOnUse" />
    <linearGradient
       id="grad11-2">
      <stop
         offset="0%"
         stop-color="#1b1918"
         stop-opacity="1.0000"
         id="stop27627" />
      <stop
         offset="100%"
         stop-color="#ffffff"
         stop-opacity="1.0000"
         id="stop27629" />
    </linearGradient>
    <linearGradient
       xlink:href="#grad11-2"
       id="grad12"
       x1="238.13392"
       y1="425.37742"
       x2="238.13392"
       y2="480.65044"
       gradientTransform="matrix(1.5557502,0,0,0.64277671,9.5307081,-134.90902)"
       gradientUnits="userSpaceOnUse" />
    <linearGradient
       id="grad13">
      <stop
         offset="0.0000%"
         stop-color="#121e3d"
         stop-opacity="1.0000"
         id="stop27639" />
      <stop
         offset="12.0000%"
         stop-color="#ffffff"
         stop-opacity="1.0000"
         id="stop27641" />
      <stop
         offset="0.0000%"
         stop-color="#d6d6d6"
         stop-opacity="1.0000"
         id="stop27643" />
      <stop
         offset="512.0000%"
         stop-color="#ffffff"
         stop-opacity="1.0000"
         id="stop27645" />
      <stop
         offset="0.0000%"
         stop-color="#ffffff"
         stop-opacity="1.0000"
         id="stop27647" />
    </linearGradient>
    <linearGradient
       xlink:href="#linearGradient28742"
       id="grad14"
       x1="238.13673"
       y1="424.63309"
       x2="238.13673"
       y2="479.90677"
       gradientTransform="scale(1.5557318,0.64278432)"
       gradientUnits="userSpaceOnUse" />
    <defs
       id="defs26138">
      <linearGradient
         id="linearGradient27802">
        <stop
           offset="0.0000%"
           stop-color="#ec630b"
           stop-opacity="1.0000"
           id="stop27794" />
        <stop
           offset="12.0000%"
           stop-color="#ffffff"
           stop-opacity="1.0000"
           id="stop27796" />
        <stop
           offset="0.0000%"
           stop-color="#d6d6d6"
           stop-opacity="1.0000"
           id="stop27798" />
        <stop
           offset="512.0000%"
           stop-color="#ffffff"
           stop-opacity="1.0000"
           id="stop27800" />
      </linearGradient>
    </defs>
    <defs
       id="defs26150">
      <linearGradient
         id="linearGradient27812">
        <stop
           offset="0.0000%"
           stop-color="#043168"
           stop-opacity="1.0000"
           id="stop27806" />
        <stop
           offset="12.0000%"
           stop-color="#ffffff"
           stop-opacity="1.0000"
           id="stop27808" />
        <stop
           offset="0.0000%"
           stop-color="#d6d6d6"
           stop-opacity="1.0000"
           id="stop27810" />
      </linearGradient>
      <linearGradient
         xlink:href="#grad9"
         id="linearGradient27814"
         x1="0"
         y1="0"
         x2="0"
         y2="1"
         gradientTransform="rotate(-130,0.5,0.5)"
         gradientUnits="objectBoundingBox" />
    </defs>
    <defs
       id="defs27633">
      <linearGradient
         id="linearGradient28742">
        <stop
           offset="0%"
           stop-color="#1b1918"
           stop-opacity="1.0000"
           id="stop28738" />
        <stop
           offset="100%"
           stop-color="#ffffff"
           stop-opacity="1.0000"
           id="stop28740" />
      </linearGradient>
      <linearGradient
         xlink:href="#grad11-2"
         id="linearGradient28744"
         x1="0"
         y1="0"
         x2="0"
         y2="1"
         gradientTransform="rotate(-61,0.5,0.5)"
         gradientUnits="objectBoundingBox" />
    </defs>
    <defs
       id="defs27651">
      <linearGradient
         id="linearGradient28759">
        <stop
           offset="0.0000%"
           stop-color="#121e3d"
           stop-opacity="1.0000"
           id="stop28749" />
        <stop
           offset="12.0000%"
           stop-color="#ffffff"
           stop-opacity="1.0000"
           id="stop28751" />
        <stop
           offset="0.0000%"
           stop-color="#d6d6d6"
           stop-opacity="1.0000"
           id="stop28753" />
        <stop
           offset="512.0000%"
           stop-color="#ffffff"
           stop-opacity="1.0000"
           id="stop28755" />
        <stop
           offset="0.0000%"
           stop-color="#ffffff"
           stop-opacity="1.0000"
           id="stop28757" />
      </linearGradient>
      <linearGradient
         xlink:href="#grad13"
         id="linearGradient28761"
         x1="0"
         y1="0"
         x2="0"
         y2="1"
         gradientTransform="rotate(-61,0.5,0.5)"
         gradientUnits="objectBoundingBox" />
    </defs>
  </defs>
  <sodipodi:namedview
     pagecolor="#ffffff"
     bordercolor="#666666"
     borderopacity="1"
     objecttolerance="10"
     gridtolerance="10"
     guidetolerance="10"
     inkscape:pageopacity="0"
     inkscape:pageshadow="2"
     inkscape:window-width="1920"
     inkscape:window-height="1001"
     id="namedview8004"
     showgrid="false"
     showguides="true"
     inkscape:guide-bbox="true"
     inkscape:zoom="1.4142136"
     inkscape:cx="216.91284"
     inkscape:cy="274.61913"
     inkscape:window-x="-9"
     inkscape:window-y="-9"
     inkscape:window-maximized="1"
     inkscape:current-layer="g1583"
     inkscape:document-rotation="0" />
  <g
     id="g1583"
     transform="matrix(4.4924037,0,0,4.4651677,-1524.1238,-315.07186)">
    <path
       d="m 380.0076,161.57427 c 1.4404,-3.2443 5.5702,-11.3691 14.8031,-17.0581 2.7758,-1.7109 12.8238,-7.8999 23.0677,-5.35409 2.7211,0.67699 8.828,2.80779 12.9519,4.3581 3.1074,1.16829 4.7475,1.8769 7.2777,2.2413 4.4167,0.6365 8.2078,-0.257 10.7326,-1.1206 -1.1868,2.9081 -2.8045,4.5186 -3.8236,5.354 -6.2872,5.149 -15.9902,2.2472 -16.4068,2.1174 -1.9986,-0.6285 -3.1415,-0.9588 -5.4274,-1.619 -2.5854,-0.7478 -3.5919,-1.0043 -4.9341,-0.9972 -1.8987,0.0118 -3.4381,0.546 -4.4415,0.9972 0.9554,0.1226 2.4375,0.3623 4.1942,0.8712 3.8813,1.1236 5.6385,2.5555 9.2522,4.1092 0,0 3.4862,1.4985 7.0308,2.2408 7.2065,1.50989 13.856,-1.2276 16.7178,-2.6338 0.1091,-0.0527 0.6189,-0.3021 1.1691,-0.60291 3.0125,-1.6506 8.6742,-5.6519 13.8273,-15.9641 -0.5249,3.51651 -1.8061,9.08841 -5.3158,14.96781 -7.0446,11.7971 -18.0325,16.3963 -22.1059,17.8451 -3.9314,1.39699 -11.0275,3.92089 -19.3099,2.0495 -5.8002,-1.3106 -11.6287,-4.6505 -16.0686,-7.19461 -4.8839,-2.7995 -6.1979,-4.1164 -9.6212,-5.1047 -2.9878,-0.8628 -7.5094,-1.4046 -13.5696,0.4975 z"
       style="fill:url(#grad12)"
       id="path27635" />
    <path
       d="m 468.6665,123.65928 c 0.007,-0.982 -0.0881,-1.9598 -0.1315,-2.9431 -0.1209,-0.9736 -0.1887,-1.9577 -0.3665,-2.9254 l -0.2426,-1.4563 c -0.0915,-0.4824 -0.2069,-0.9606 -0.3097,-1.4425 -0.1896,-0.9673 -0.4794,-1.908 -0.7318,-2.8605 -1.1433,-3.7688 -2.7846,-7.3889 -4.8624,-10.7288 -4.1972,-6.660505 -10.158,-12.166705 -17.0784,-15.759405 -4.4782,-2.3254 -8.4699,-3.4364 -10.9103,-3.9748 -4.5663,-1.0064 -8.5403,-1.1193 -11.4674,-0.9875 -2.9401,-0.1255 -6.9301,-8e-4 -11.5107,1.0212 -2.5041,0.5599 -6.4843,1.6961 -10.9327,4.0149 -6.9372,3.6163 -12.8845,9.1709 -17.075,15.858305 -2.0533,3.3677 -3.7157,6.9891 -4.8228,10.7823 -1.0751,3.7962 -1.7306,7.7255 -1.7327,11.66659 -0.1408,7.8695 1.988,15.7345 6.0209,22.3149 -1.9821,-4.2676 -3.3273,-8.7905 -3.9773,-13.3863 3.9183,-4.8472 8.3313,-9.2779 13.1309,-13.2042 0.6699,2.2737 1.5596,4.47441 2.6828,6.545 2.4299,4.4985 5.8853,8.4004 10.0193,11.2719 l 0.4264,-0.5911 c -3.8754,-3.0299 -6.9828,-6.9857 -9.0551,-11.3978 -1.0818,-2.2939 -1.8738,-4.7108 -2.3844,-7.1799 0.5742,-0.4466 1.1488,-0.8931 1.7327,-1.3254 5.1873,-3.8661 10.859,-7.0147 16.8083,-9.4342 0.3535,2.2269 1.0086,4.4033 1.9889,6.4204 0.4154,0.7625 0.7996,1.544 1.2462,2.2829 0.4895,0.7132 0.9398,1.4543 1.4673,2.1334 0.5633,0.6517 1.0818,1.3414 1.6868,1.9484 0.6218,0.5873 1.1952,1.2272 1.8596,1.7622 2.5883,2.2223 5.5971,3.8843 8.7626,4.9581 1.3005,0.4386 2.628,0.7731 3.9681,1.0162 -2.6907,3.1044 -5.8643,5.8705 -9.1465,8.2895 0.1032,0.2178 0.23,0.4281 0.3741,0.64 3.7718,-2.4902 7.3308,-5.352 10.3754,-8.6869 1.4062,0.1744 2.8205,0.2494 4.2292,0.2136 3.2995,-0.0847 6.5632,-0.7575 9.628,-1.9366 2.558,-0.9728 4.9198,-2.3858 7.0991,-4.049 0.1141,0.4247 0.2258,0.8502 0.3252,1.279 0.9289,3.8552 1.2731,7.8447 1.0974,11.8229 -0.2485,0.1786 -0.492,0.3467 -0.733,0.503 -3.8328,2.5172 -8.2824,4.5183 -12.9658,5.2711 v 0.2612 c 4.4812,0.0324 9.0828,-0.6538 13.3871,-2.3571 -0.3661,2.9334 -1.0065,5.8377 -1.9076,8.6527 l 0.6863,0.2347 c 1.0448,-3.0054 1.801,-6.1271 2.2404,-9.2985 0.005,-9e-4 0.0109,-0.003 0.016,-0.005 4.0616,-1.7685 6.2282,-3.6369 9.0794,-6.6971 -0.5893,4.7074 -1.9075,9.3508 -3.8884,13.7401 3.9896,-6.5771 6.0711,-14.431 5.8942,-22.277 z m -16.0227,-11.897 v 0 c -1.3851,-2.4692 -3.0307,-4.7862 -4.8708,-6.9331 0.7958,-0.8383 1.4218,-1.8553 1.7462,-2.9692 3.7486,0.2608 7.4744,0.7318 11.0233,1.3856 0.3791,0.6227 1.7647,1.6228 1.5212,5.3326 -0.1811,2.7649 -0.7238,3.5295 -1.6485,5.1544 -1.437,2.5231 -2.4708,3.7625 -4.3918,5.8188 -0.8616,-2.6992 -2.0007,-5.3128 -3.3796,-7.7891 z m -36.9502,-7.7988 v 0 c 0,-0.0497 -0.004,-0.0982 -0.004,-0.1479 0.005,-2.9051 0.4419,-5.820405 1.4336,-8.639205 0.5607,-1.603 1.3258,-3.1681 2.2821,-4.6202 1.1446,0.2692 2.2808,0.5733 3.4052,0.9243 l 1.4265,0.4529 1.4066,0.5164 c 0.9475,0.3211 1.8503,0.7541 2.7767,1.1329 1.5175,0.6656 2.9928,1.391 4.4429,2.1607 -0.2398,0.297 -0.4668,0.6054 -0.6619,0.9399 -0.535,0.9273 -0.8569,2.0003 -0.918,3.0952 -5.3186,0.897705 -10.5455,2.295505 -15.5899,4.185005 z m 21.7402,-11.153905 v 0 c -0.9727,0.2789 -1.9126,0.7015 -2.7758,1.2845 -1.7066,-0.9938 -3.4596,-1.9071 -5.2289,-2.7375 -0.9593,-0.4221 -1.8971,-0.8986 -2.8812,-1.2626 l -1.464,-0.5792 -1.4862,-0.514 c -0.7975,-0.2713 -1.603,-0.5173 -2.4123,-0.7486 0.2313,-0.2536 0.4672,-0.5039 0.7137,-0.7448 2.1561,-2.1414 4.8519,-3.6778 7.6732,-4.7479 3.1617,2.7586 5.9367,6.4081 7.8615,10.0501 z m 1.2192,2.5686 v 0 c 0.2524,0.6041 0.4816,1.1876 0.6947,1.7601 -0.9934,-0.7149 -2.0074,-1.3999 -3.042,-2.0529 0.5691,-0.3547 1.1846,-0.645 1.833,-0.8636 0.1819,0.3875 0.3551,0.773 0.5143,1.1564 z m 3.0855,-1.1468 v 0 c -0.0569,-0.1723 -0.123,-0.3336 -0.1837,-0.5038 1.6738,0.0678 3.353,0.5481 4.7504,1.5145 0.7887,0.5586 1.4867,1.2639 1.9725,2.1014 0.2157,0.3703 0.3812,0.7663 0.5093,1.1741 -1.9413,-0.0422 -3.8825,-0.0219 -5.8293,0.0581 -0.3307,-1.434 -0.7356,-2.8723 -1.2192,-4.3443 z m -7.2359,2.4077 v 0 c 1.2284,0.7107 2.4333,1.4635 3.6074,2.2631 -0.2523,0.0228 -0.5022,0.0388 -0.7545,0.0632 -1.3856,0.1365 -2.7662,0.3155 -4.1421,0.5165 0.129,-1.0284 0.5987,-2.0087 1.2892,-2.8428 z m 3.0774,5.144705 v 0 c 1.0212,-0.0645 2.0563,-0.1058 3.0986,-0.1319 0.3349,1.5714 0.5224,3.1457 0.5729,4.8271 -0.1462,8e-4 -0.2919,0.005 -0.4364,8e-4 -1.9173,-0.0809 -3.7941,-0.7229 -5.237,-1.8667 -0.8603,-0.6686 -1.5478,-1.5292 -1.9653,-2.4809 1.3199,-0.1433 2.6419,-0.2671 3.9672,-0.3484 z m 6.1444,1.5848 v 0 c 0.68,0.6353 1.3422,1.2921 1.9805,1.9679 -0.589,0.3345 -1.2175,0.5881 -1.8663,0.773 0.003,-0.9285 -0.0375,-1.8397 -0.1142,-2.7409 z m 1.2361,-1.5448 v 0 c -0.059,-0.0581 -0.1213,-0.1129 -0.1812,-0.1706 1.3191,0.0269 2.6406,0.0767 3.9643,0.158 -0.1239,0.3631 -0.2726,0.717 -0.4659,1.0498 -0.2852,0.4921 -0.6497,0.9327 -1.0575,1.3308 -0.7254,-0.8156 -1.4791,-1.6063 -2.2597,-2.368 z m 8.0638,-7.945405 v 0 c 1.7146,1.619 3.2763,3.3918 4.7065,5.2665 -2.7265,-0.3253 -5.4404,-0.5207 -8.1539,-0.602 -0.4145,-1.6081 -1.4501,-3.0392 -2.7447,-4.0279 -1.6451,-1.2879 -3.7013,-1.9851 -5.7896,-2.1077 -1.3005,-3.0686 -3.1512,-5.7202 -5.1161,-8.4438 -0.0413,9e-4 -0.3316,-0.3463 -0.5965,-0.6681 3.037,1.0102 5.9771,2.2859 8.7386,3.8754 3.2283,1.8932 6.2801,4.0927 8.9557,6.7076 z m -41.6788,-11.1168 v 0 c 1.0886,-0.3358 3.0438,-0.8434 5.5403,-1.2546 1.6447,-0.27 3.5577,-0.4962 5.6928,-0.5868 0.851,0.0295 1.758,0.0885 2.713,0.1887 0.9597,0.1003 1.8634,0.2317 2.7055,0.3796 0.008,0.005 0.0156,0.0114 0.024,0.0164 -2.657,1.1628 -5.0954,2.7864 -7.3252,4.6573 -0.5709,0.4836 -1.127,0.9917 -1.6696,1.5166 -4.8051,-1.1564 -9.7695,-1.6337 -14.7171,-1.4808 0.7322,-0.6576 1.4745,-1.2449 2.2135,-1.7369 1.5692,-0.6652 3.1903,-1.1956 4.8228,-1.6995 z m -32.879,49.597205 v 0 c -0.3644,-2.7813 -0.4735,-5.5883 -0.3109,-8.3793 0.3876,-7.5688 2.7396,-14.9703 6.7329,-21.335 1.9944,-3.182005 4.3624,-6.132205 7.0911,-8.712205 1.2027,-1.1909 2.507,-2.2745 3.8433,-3.3125 -1.137,1.7538 -2.119,3.6041 -2.9161,5.526 -2.02,4.841805 -2.9014,10.113705 -2.6372,15.283705 0.1154,2.4152 0.4899,4.8102 1.0953,7.1378 -4.7639,4.1407 -9.09,8.7711 -12.8984,13.7915 z m 15.9215,-16.3188 v 0 c -0.4259,0.3391 -0.8413,0.6905 -1.2617,1.0372 -0.3168,-1.8874 -0.4756,-3.7975 -0.4584,-5.7025 0.0224,-4.8283 1.1152,-9.6107 3.1862,-13.883405 1.0835,-2.2462 2.9941,-5.2285 5.2365,-7.915 5.2307,-0.6189 10.5624,-0.4921 15.7556,0.4457 -0.9787,1.1754 -1.873,2.4363 -2.6322,3.8038 -0.4053,0.7549 -0.7465,1.5482 -1.1185,2.3326 -0.3029,0.8089 -0.5662,1.6392 -0.8362,2.4691 -0.1753,0.8523 -0.3531,1.708805 -0.5009,2.571505 -0.0763,0.8687 -0.1201,1.7433 -0.1719,2.6166 0.004,0.5936 0.0375,1.188 0.0847,1.7804 -6.1832,2.7278 -12.0222,6.2303 -17.2832,10.444 z m 28.0604,3.4701 v 0 c -0.5493,-0.4971 -1.0056,-1.0894 -1.5124,-1.6232 -0.49,-0.5523 -0.8902,-1.1771 -1.3409,-1.7559 -0.4276,-0.5978 -0.7773,-1.2462 -1.1729,-1.8617 -0.3522,-0.6412 -0.6437,-1.3148 -0.9719,-1.9653 -0.8535,-1.9884 -1.4269,-4.0919 -1.6514,-6.2349 5.162,-1.7656 10.4882,-3.0013 15.8798,-3.7115 0.1441,0.4031 0.3118,0.797 0.5228,1.1631 0.5915,1.0225 1.421,1.8608 2.3407,2.518 1.8658,1.2997 4.11,1.8351 6.2729,1.7753 0.1537,-0.006 0.3058,-0.0223 0.4604,-0.0341 -0.007,0.6315 -0.029,1.2832 -0.0686,1.959 -0.3105,5.4016 -2.4599,10.1739 -5.5782,14.7642 -0.3219,0.4752 -0.6653,0.9386 -1.012,1.4004 -4.6037,-0.9315 -8.8899,-3.1714 -12.1683,-6.3934 z m 25.2673,5.3975 v 0 c -2.8774,1.0717 -5.9587,1.5343 -9.0075,1.4732 -0.8147,-0.0232 -1.6253,-0.0923 -2.4287,-0.1976 0.2381,-0.2991 0.4845,-0.5927 0.7145,-0.8986 3.5022,-4.672 5.9359,-9.7628 6.6171,-15.4105 0.1079,-0.8872 0.1639,-1.7466 0.1984,-2.5968 0.8986,-0.2928 1.7551,-0.7065 2.5353,-1.2407 1.8309,2.0234 3.4743,4.2145 4.8705,6.5661 1.5006,2.5421 2.7438,5.2526 3.666,8.0743 -2.0702,1.8743 -4.5646,3.2528 -7.1656,4.2306 z m 10.2355,9.8896 v 0 c 0.1878,-3.773 -0.0847,-7.5726 -0.8797,-11.2887 -0.1335,-0.6433 -0.2894,-1.2811 -0.4554,-1.916 0.0413,-0.0337 0.0847,-0.0662 0.1255,-0.1003 2.5151,-2.1317 4.825,-4.6505 6.5072,-7.6656 0.4069,-0.7558 0.7486,-1.5512 1.1227,-2.3356 0.0135,-0.0371 0.0257,-0.0742 0.0388,-0.11 1.4079,3.9588 2.2597,8.1249 2.5116,12.3461 0.0291,0.4529 0.0506,0.9066 0.0666,1.3599 -2.1325,3.1002 -5.78,7.105 -9.0373,9.7102 z"
       style="fill:#e95c0e;fill-rule:evenodd"
       id="path27637" />
    <path
       d="m 380.0076,161.57378 c 1.4404,-3.2451 5.5702,-11.3691 14.8031,-17.0577 2.7758,-1.7108 12.8238,-7.9003 23.0677,-5.3541 2.7211,0.677 8.828,2.8079 12.9519,4.3582 3.1074,1.1678 4.7475,1.8764 7.2777,2.24081 4.4167,0.63659 8.2078,-0.2566 10.7326,-1.12021 -1.1868,2.9081 -2.8045,4.51831 -3.8236,5.3537 -6.2872,5.14931 -15.9902,2.2475 -16.4068,2.1161 -1.9986,-0.6269 -3.1415,-0.9576 -5.4274,-1.6173 -2.5854,-0.7478 -3.5919,-1.0044 -4.9341,-0.9972 -1.8987,0.0114 -3.4381,0.546 -4.4415,0.9972 0.9554,0.1221 2.4375,0.3619 4.1942,0.8708 3.8813,1.1239 5.6385,2.5555 9.2522,4.1092 0,0 3.4862,1.4985 7.0308,2.2408 7.2065,1.5098 13.856,-1.2272 16.7178,-2.6339 0.1091,-0.0539 0.6189,-0.3021 1.1691,-0.6029 3.0125,-1.6505 8.6742,-5.6519 13.8273,-15.9649 -0.5249,3.5169 -1.8061,9.0892 -5.3158,14.9682 -7.0446,11.7976 -18.0325,16.3967 -22.1059,17.8455 -3.9314,1.397 -11.0275,3.9209 -19.3099,2.0496 -5.8002,-1.3102 -11.6287,-4.6506 -16.0686,-7.1947 -4.8839,-2.7994 -6.1979,-4.1164 -9.6212,-5.1047 -2.9878,-0.8628 -7.5094,-1.4045 -13.5696,0.4975 z"
       style="mix-blend-mode:multiply;fill:#1818fb;fill-opacity:1;stroke:none;stroke-opacity:1"
       id="path27653" />
  </g>
  <path
     style="fill:#d6842d;fill-opacity:0.805668;stroke:none;stroke-width:0.429376;stroke-opacity:1"
     d=""
     id="path29468" />
  <path
     style="fill:#d6842d;fill-opacity:0.805668;stroke:none;stroke-width:0.00390625;stroke-opacity:1"
     d=""
     id="path29612" />
  <path
     style="fill:#d6842d;fill-opacity:0.805668;stroke:none;stroke-width:0.03125;stroke-opacity:1"
     d=""
     id="path29738" />
  <path
     style="fill:#d6842d;fill-opacity:0.805668;stroke:none;stroke-width:0.00390625;stroke-opacity:1"
     d=""
     id="path29796" />
  <path
     style="fill:#d6842d;fill-opacity:0.805668;stroke:none;stroke-width:0.00390625;stroke-opacity:1"
     d=""
     id="path29806" />
  <path
     style="fill:#d6842d;fill-opacity:0.805668;stroke:none;stroke-width:0.015625;stroke-opacity:1"
     d=""
     id="path29810" />
  <path
     style="fill:#d6842d;fill-opacity:0.805668;stroke:none;stroke-width:0.00390625;stroke-opacity:1"
     d=""
     id="path29822" />
  <path
     style="fill:#d6842d;fill-opacity:0.805668;stroke:none;stroke-width:0.00390625;stroke-opacity:1"
     d=""
     id="path29824" />
  <path
     style="fill:#d6832d;fill-opacity:1;stroke:none;stroke-width:0.0883883;stroke-opacity:1"
     d=""
     id="path30391" />
  <path
     style="fill:#d6832d;fill-opacity:1;stroke:none;stroke-width:0.0883883;stroke-opacity:1"
     d=""
     id="path30393" />
  <path
     style="fill:#d6832d;fill-opacity:1;stroke:none;stroke-width:0.0883883;stroke-opacity:1"
     d=""
     id="path30395" />
</svg>
